<?xml version="1.0" encoding="UTF-8" standalone="no"?>
<!DOCTYPE svg PUBLIC "-//W3C//DTD SVG 1.1//EN"
 "http://www.w3.org/Graphics/SVG/1.1/DTD/svg11.dtd">
<!-- Generated by graphviz version 2.38.0 (20140413.2041)
 -->
<!-- Title: G Pages: 1 -->
<svg width="421pt" height="455pt"
 viewBox="0.00 0.00 421.25 455.00" xmlns="http://www.w3.org/2000/svg" xmlns:xlink="http://www.w3.org/1999/xlink">
<g id="graph0" class="graph" transform="scale(1 1) rotate(0) translate(4 451)">
<title>G</title>
<polygon fill="white" stroke="none" points="-4,4 -4,-451 417.245,-451 417.245,4 -4,4"/>
<g id="clust1" class="cluster"><title>cluster_Global</title>
<path fill="none" stroke="gray" d="M20,-44C20,-44 393.245,-44 393.245,-44 399.245,-44 405.245,-50 405.245,-56 405.245,-56 405.245,-427 405.245,-427 405.245,-433 399.245,-439 393.245,-439 393.245,-439 20,-439 20,-439 14,-439 8,-433 8,-427 8,-427 8,-56 8,-56 8,-50 14,-44 20,-44"/>
<text text-anchor="middle" x="206.623" y="-426.2" font-family="Times,serif" font-size="11.00" fill="gray">Global</text>
</g>
<!-- \\adpapiConnectionFactory -->
<g id="node1" class="node"><title>\\adpapiConnectionFactory</title>
<polygon fill="none" stroke="black" points="387.256,-412 219.606,-412 219.606,-376 387.256,-376 387.256,-412"/>
<text text-anchor="middle" x="303.431" y="-390.7" font-family="Courier,monospace" font-size="11.00">adpapiConnectionFactory</text>
</g>
<!-- \\adpapiConnection -->
<g id="node2" class="node"><title>\\adpapiConnection</title>
<polygon fill="none" stroke="black" points="137.426,-331 16.1908,-331 16.1908,-295 137.426,-295 137.426,-331"/>
<text text-anchor="start" x="43.8032" y="-315.2" font-family="Courier,monospace" font-size="11.00">«abstract»</text>
<text text-anchor="start" x="24" y="-304.2" font-family="Courier,monospace" font-size="11.00">adpapiConnection</text>
</g>
<!-- \\adpapiClientConnection -->
<g id="node3" class="node"><title>\\adpapiClientConnection</title>
<polygon fill="none" stroke="black" points="384.155,-358 222.707,-358 222.707,-322 384.155,-322 384.155,-358"/>
<text text-anchor="middle" x="303.431" y="-336.7" font-family="Courier,monospace" font-size="11.00">adpapiClientConnection</text>
</g>
<!-- \\adpapiClientConnection&#45;&gt;\\adpapiConnection -->
<g id="edge1" class="edge"><title>\\adpapiClientConnection&#45;&gt;\\adpapiConnection</title>
<path fill="none" stroke="black" d="M222.605,-330.405C198.11,-327.46 171.36,-324.245 147.591,-321.388"/>
<polygon fill="none" stroke="black" points="147.949,-317.906 137.602,-320.187 147.113,-324.856 147.949,-317.906"/>
</g>
<!-- \\adpapiAuthorizedConnection -->
<g id="node4" class="node"><title>\\adpapiAuthorizedConnection</title>
<polygon fill="none" stroke="black" points="397.059,-304 209.803,-304 209.803,-268 397.059,-268 397.059,-304"/>
<text text-anchor="middle" x="303.431" y="-282.7" font-family="Courier,monospace" font-size="11.00">adpapiAuthorizedConnection</text>
</g>
<!-- \\adpapiAuthorizedConnection&#45;&gt;\\adpapiConnection -->
<g id="edge2" class="edge"><title>\\adpapiAuthorizedConnection&#45;&gt;\\adpapiConnection</title>
<path fill="none" stroke="black" d="M209.772,-297.138C188.984,-299.637 167.269,-302.247 147.596,-304.611"/>
<polygon fill="none" stroke="black" points="147.021,-301.155 137.51,-305.824 147.856,-308.105 147.021,-301.155"/>
</g>
<!-- \\adpapiUtilityFactory -->
<g id="node5" class="node"><title>\\adpapiUtilityFactory</title>
<polygon fill="none" stroke="black" points="377.453,-250 229.41,-250 229.41,-214 377.453,-214 377.453,-250"/>
<text text-anchor="middle" x="303.431" y="-228.7" font-family="Courier,monospace" font-size="11.00">adpapiUtilityFactory</text>
</g>
<!-- \\adpapiUtilityLogger -->
<g id="node6" class="node"><title>\\adpapiUtilityLogger</title>
<polygon fill="none" stroke="black" points="374.352,-196 232.51,-196 232.51,-160 374.352,-160 374.352,-196"/>
<text text-anchor="middle" x="303.431" y="-174.7" font-family="Courier,monospace" font-size="11.00">adpapiUtilityLogger</text>
</g>
<!-- \\adpapiProduct -->
<g id="node7" class="node"><title>\\adpapiProduct</title>
<polygon fill="none" stroke="black" points="354.245,-142 252.617,-142 252.617,-106 354.245,-106 354.245,-142"/>
<text text-anchor="start" x="270.426" y="-126.2" font-family="Courier,monospace" font-size="11.00">«abstract»</text>
<text text-anchor="start" x="260.524" y="-115.2" font-family="Courier,monospace" font-size="11.00">adpapiProduct</text>
</g>
<!-- \\adpException -->
<g id="node8" class="node"><title>\\adpException</title>
<polygon fill="none" stroke="black" points="351.144,-88 255.718,-88 255.718,-52 351.144,-52 351.144,-88"/>
<text text-anchor="middle" x="303.431" y="-66.7" font-family="Courier,monospace" font-size="11.00">adpException</text>
</g>
<!-- \\Exception -->
<g id="node9" class="node"><title>\\Exception</title>
<ellipse fill="none" stroke="black" cx="76.8086" cy="-18" rx="48.3341" ry="18"/>
<text text-anchor="middle" x="76.8086" y="-13.8" font-family="Times,serif" font-size="14.00" fill="gray">\Exception</text>
</g>
<!-- \\adpException&#45;&gt;\\Exception -->
<g id="edge3" class="edge"><title>\\adpException&#45;&gt;\\Exception</title>
<path fill="none" stroke="black" d="M255.616,-59.1624C218.438,-50.5555 166.54,-38.5412 128.407,-29.7135"/>
<polygon fill="none" stroke="black" points="129.066,-26.2736 118.534,-27.428 127.487,-33.0932 129.066,-26.2736"/>
</g>
</g>
</svg>
